<svg xmlns="http://www.w3.org/2000/svg" viewBox="0 0 63.72 63.29"><defs><style>.cls-1{fill:none;stroke:#fff;stroke-linecap:round;stroke-linejoin:round;stroke-width:3px;}</style></defs><title>Ijzel</title><g id="Laag_2" data-name="Laag 2"><g id="Layer_1" data-name="Layer 1"><path class="cls-1" d="M53.17,19a11.61,11.61,0,0,1-2.55,22.93H13.1c-6.4,0-11.6-4.56-11.6-11a11.61,11.61,0,0,1,8.91-11.29,9.49,9.49,0,0,1-.48-3A9.33,9.33,0,0,1,25.83,10h0a14.46,14.46,0,0,1,27.64,6,26.55,26.55,0,0,1-.31,3Z"/><line class="cls-1" x1="14.77" y1="50.42" x2="20.23" y2="55.88"/><line class="cls-1" x1="14.77" y1="56" x2="20.29" y2="50.48"/><line class="cls-1" x1="42.74" y1="50.35" x2="48.2" y2="55.81"/><line class="cls-1" x1="42.74" y1="55.94" x2="48.26" y2="50.42"/><line class="cls-1" x1="28.44" y1="56.21" x2="33.9" y2="61.67"/><line class="cls-1" x1="28.44" y1="61.79" x2="33.97" y2="56.27"/></g></g></svg>