<svg xmlns="http://www.w3.org/2000/svg" viewBox="0 0 64.44 61.03"><defs><style>.cls-1{fill:none;stroke:#fff;stroke-linecap:round;stroke-linejoin:round;stroke-width:3px;}</style></defs><title>Regen-zonnig</title><g id="Laag_2" data-name="Laag 2"><g id="Layer_1" data-name="Layer 1"><line class="cls-1" x1="16.81" y1="48.62" x2="16.04" y2="54.11"/><line class="cls-1" x1="24.86" y1="48.62" x2="23.31" y2="59.53"/><line class="cls-1" x1="33.19" y1="48.62" x2="31.64" y2="59.53"/><line class="cls-1" x1="41.23" y1="48.62" x2="40.46" y2="54.11"/><path class="cls-1" d="M48.4,21.07a10.53,10.53,0,0,1-2.32,20.81H12c-5.82,0-10.53-4.14-10.53-10A10.53,10.53,0,0,1,9.59,21.67,8.26,8.26,0,0,1,9.15,19a8.48,8.48,0,0,1,14.44-6h0a13.13,13.13,0,0,1,25.09,5.42,24.23,24.23,0,0,1-.28,2.71Z"/><path class="cls-1" d="M39.8,5.93A13.25,13.25,0,1,1,55.51,26.65"/></g></g></svg>