<svg width="59" height="59" viewBox="0 0 59 59" fill="none" xmlns="http://www.w3.org/2000/svg">
<circle cx="29.5" cy="29.5" r="29.5" fill="black"/>
<path d="M16.5039 35.1973C15.5391 34.9199 14.8359 34.5801 14.3945 34.1777C13.957 33.7715 13.7383 33.2715 13.7383 32.6777C13.7383 32.0059 14.0059 31.4512 14.541 31.0137C15.0801 30.5723 15.7793 30.3516 16.6387 30.3516C17.2246 30.3516 17.7461 30.4648 18.2031 30.6914C18.6641 30.918 19.0195 31.2305 19.2695 31.6289C19.5234 32.0273 19.6504 32.4629 19.6504 32.9355H18.5195C18.5195 32.4199 18.3555 32.0156 18.0273 31.7227C17.6992 31.4258 17.2363 31.2773 16.6387 31.2773C16.084 31.2773 15.6504 31.4004 15.3379 31.6465C15.0293 31.8887 14.875 32.2266 14.875 32.6602C14.875 33.0078 15.0215 33.3027 15.3145 33.5449C15.6113 33.7832 16.1133 34.002 16.8203 34.2012C17.5312 34.4004 18.0859 34.6211 18.4844 34.8633C18.8867 35.1016 19.1836 35.3809 19.375 35.7012C19.5703 36.0215 19.668 36.3984 19.668 36.832C19.668 37.5234 19.3984 38.0781 18.8594 38.4961C18.3203 38.9102 17.5996 39.1172 16.6973 39.1172C16.1113 39.1172 15.5645 39.0059 15.0566 38.7832C14.5488 38.5566 14.1562 38.248 13.8789 37.8574C13.6055 37.4668 13.4688 37.0234 13.4688 36.5273H14.5996C14.5996 37.043 14.7891 37.4512 15.168 37.752C15.5508 38.0488 16.0605 38.1973 16.6973 38.1973C17.291 38.1973 17.7461 38.0762 18.0625 37.834C18.3789 37.5918 18.5371 37.2617 18.5371 36.8438C18.5371 36.4258 18.3906 36.1035 18.0977 35.877C17.8047 35.6465 17.2734 35.4199 16.5039 35.1973ZM20.6582 35.7715C20.6582 35.1504 20.7793 34.5918 21.0215 34.0957C21.2676 33.5996 21.6074 33.2168 22.041 32.9473C22.4785 32.6777 22.9766 32.543 23.5352 32.543C24.3984 32.543 25.0957 32.8418 25.627 33.4395C26.1621 34.0371 26.4297 34.832 26.4297 35.8242V35.9004C26.4297 36.5176 26.3105 37.0723 26.0723 37.5645C25.8379 38.0527 25.5 38.4336 25.0586 38.707C24.6211 38.9805 24.1172 39.1172 23.5469 39.1172C22.6875 39.1172 21.9902 38.8184 21.4551 38.2207C20.9238 37.623 20.6582 36.832 20.6582 35.8477V35.7715ZM21.748 35.9004C21.748 36.6035 21.9102 37.168 22.2344 37.5938C22.5625 38.0195 23 38.2324 23.5469 38.2324C24.0977 38.2324 24.5352 38.0176 24.8594 37.5879C25.1836 37.1543 25.3457 36.5488 25.3457 35.7715C25.3457 35.0762 25.1797 34.5137 24.8477 34.084C24.5195 33.6504 24.082 33.4336 23.5352 33.4336C23 33.4336 22.5684 33.6465 22.2402 34.0723C21.9121 34.498 21.748 35.1074 21.748 35.9004ZM29.7988 36.3105L29.9629 37.4355L30.2031 36.4219L31.8906 30.4688H32.8398L34.4863 36.4219L34.7207 37.4531L34.9023 36.3047L36.2266 30.4688H37.3574L35.2891 39H34.2637L32.5059 32.7832L32.3711 32.1328L32.2363 32.7832L30.4141 39H29.3887L27.3262 30.4688H28.4512L29.7988 36.3105ZM39.6191 39H38.5352V32.6602H39.6191V39ZM38.4473 30.9785C38.4473 30.8027 38.5 30.6543 38.6055 30.5332C38.7148 30.4121 38.875 30.3516 39.0859 30.3516C39.2969 30.3516 39.457 30.4121 39.5664 30.5332C39.6758 30.6543 39.7305 30.8027 39.7305 30.9785C39.7305 31.1543 39.6758 31.3008 39.5664 31.418C39.457 31.5352 39.2969 31.5938 39.0859 31.5938C38.875 31.5938 38.7148 31.5352 38.6055 31.418C38.5 31.3008 38.4473 31.1543 38.4473 30.9785ZM42.3848 32.6602L42.4199 33.457C42.9043 32.8477 43.5371 32.543 44.3184 32.543C45.6582 32.543 46.334 33.2988 46.3457 34.8105V39H45.2617V34.8047C45.2578 34.3477 45.1523 34.0098 44.9453 33.791C44.7422 33.5723 44.4238 33.4629 43.9902 33.4629C43.6387 33.4629 43.3301 33.5566 43.0645 33.7441C42.7988 33.9316 42.5918 34.1777 42.4434 34.4824V39H41.3594V32.6602H42.3848ZM47.7168 35.7773C47.7168 34.8047 47.9473 34.0234 48.4082 33.4336C48.8691 32.8398 49.4727 32.543 50.2188 32.543C50.9609 32.543 51.5488 32.7969 51.9824 33.3047V30H53.0664V39H52.0703L52.0176 38.3203C51.584 38.8516 50.9805 39.1172 50.207 39.1172C49.4727 39.1172 48.873 38.8164 48.4082 38.2148C47.9473 37.6133 47.7168 36.8281 47.7168 35.8594V35.7773ZM48.8008 35.9004C48.8008 36.6191 48.9492 37.1816 49.2461 37.5879C49.543 37.9941 49.9531 38.1973 50.4766 38.1973C51.1641 38.1973 51.666 37.8887 51.9824 37.2715V34.3594C51.6582 33.7617 51.1602 33.4629 50.4883 33.4629C49.957 33.4629 49.543 33.668 49.2461 34.0781C48.9492 34.4883 48.8008 35.0957 48.8008 35.9004Z" fill="white"/>
<path d="M12.2632 18.6667V29.3333L32 26.6667V21.3333L12.2632 18.6667ZM16.2105 21.2133L20.1579 21.7467V26.2533L16.2105 26.7867V21.2133ZM24.1053 22.28L28.0526 22.8133V25.1867L24.1053 25.72V22.28ZM9.63158 25.3333V26.6667H10.9474V28H9.63158V40H7V17.3333C7 16.6 7.59211 16 8.31579 16C9.03947 16 9.63158 16.6 9.63158 17.3333V20H10.9474V21.3333H9.63158V25.3333Z" fill="white"/>
</svg>
