<svg width="22" height="23" viewBox="0 0 22 23" fill="none" xmlns="http://www.w3.org/2000/svg">
<path d="M16.4907 1.93024H20.4265V3.29806H16.4907V1.93024Z" fill="black"/>
<path d="M16.4907 6.03369H19.1146V7.40151H16.4907V6.03369Z" fill="black"/>
<path d="M16.4907 10.1372H20.4265V11.505H16.4907V10.1372Z" fill="black"/>
<path d="M16.4907 14.2406H19.1146V15.6085H16.4907V14.2406Z" fill="black"/>
<path d="M20.4265 19.7119H16.4908C15.1804 19.7071 13.9011 19.2947 12.8169 18.5274C11.7327 17.7601 10.8928 16.6728 10.4047 15.4048C9.91672 14.1369 9.80279 12.7459 10.0775 11.41C10.3523 10.0741 11.0032 8.85412 11.9469 7.90624C11.0898 7.57686 10.1841 7.40606 9.27061 7.40151C8.47203 7.39308 7.68552 7.605 6.99086 8.01577C6.29619 8.42655 5.71808 9.02157 5.31517 9.74048C4.02555 11.8025 3.37155 15.1571 3.37155 19.7119H2.05963C2.05963 14.8876 2.78512 11.2813 4.21578 8.99297C4.73855 8.08365 5.47992 7.33233 6.36657 6.81332C7.25323 6.29431 8.25446 6.02557 9.27127 6.03369H9.2752C10.749 6.05559 12.1985 6.42798 13.5134 7.12247C13.6147 7.17759 13.7004 7.25935 13.7621 7.35964C13.8238 7.45994 13.8593 7.5753 13.865 7.6943C13.8708 7.81329 13.8467 7.9318 13.795 8.03806C13.7433 8.14433 13.6659 8.23469 13.5704 8.30017C12.6351 8.9554 11.9261 9.90627 11.5478 11.0129C11.1694 12.1196 11.1417 13.3236 11.4686 14.448C11.7955 15.5723 12.4598 16.5576 13.3639 17.2589C14.2679 17.9603 15.3639 18.3406 16.4908 18.3441H20.4265V19.7119Z" fill="black"/>
</svg>
